#tb 0: 1001/30000
#media_type 0: video
#codec_id 0: rawvideo
#dimensions 0: 128x128
#sar 0: 4/3
0,          0,          0,        1,    24576, 0xb5c77b03
0,          1,          1,        1,    24576, 0x5b93aa88
0,          2,          2,        1,    24576, 0xa32cb1bd
0,          3,          3,        1,    24576, 0x765bc899
0,          4,          4,        1,    24576, 0x8dbbea65
